<?xml version="1.0" encoding="UTF-8"?>
<svg xmlns="http://www.w3.org/2000/svg" xmlns:xlink="http://www.w3.org/1999/xlink" width="350px" height="350px" viewBox="0 0 350 350" version="1.1">
<defs>
<clipPath id="clip1">
  <path d="M 0 0 L 349.898438 0 L 349.898438 349.898438 L 0 349.898438 Z M 0 0 "/>
</clipPath>
<clipPath id="clip2">
  <path d="M 85.511719 74.582031 L 264.390625 74.582031 L 264.390625 275.316406 L 85.511719 275.316406 Z M 85.511719 74.582031 "/>
</clipPath>
</defs>
<g id="surface1">
<g clip-path="url(#clip1)" clip-rule="nonzero">
<path style="fill-rule:nonzero;fill:rgb(93.333333%,24.313725%,21.960784%);fill-opacity:1;stroke-width:1;stroke-linecap:butt;stroke-linejoin:miter;stroke:rgb(100%,100%,100%);stroke-opacity:1;stroke-miterlimit:4;" d="M -0.000000000000041001 166.95154 C -0.000000000000041001 74.747411 74.747411 0.000000000000006522 166.95154 0.000000000000006522 C 259.15567 0.000000000000006522 333.90308 74.747411 333.906808 166.95154 C 333.906808 259.15567 259.159397 333.90308 166.95154 333.906808 C 74.747411 333.906808 -0.000000000000041001 259.159397 -0.000000000000041001 166.95154 Z M 166.95154 316.629018 C 249.61654 316.629018 316.629018 249.61654 316.629018 166.95154 C 316.629018 84.28654 249.61654 17.274063 166.95154 17.274063 C 84.28654 17.274063 17.274062 84.28654 17.274062 166.95154 C 17.274062 249.61654 84.28654 316.629018 166.95154 316.629018 Z M 166.95154 316.629018 " transform="matrix(1.047904,0,0,1.047904,0.000000000000042966,-0.000000000000006835)"/>
</g>
<path style=" stroke:none;fill-rule:nonzero;fill:rgb(93.333333%,24.313725%,21.960784%);fill-opacity:1;" d="M 342.902344 174.949219 C 342.902344 82.191406 267.707031 6.996094 174.949219 6.996094 C 82.191406 6.996094 6.996094 82.191406 6.996094 174.949219 C 6.996094 267.707031 82.191406 342.902344 174.949219 342.902344 C 267.707031 342.902344 342.902344 267.707031 342.902344 174.949219 Z M 342.902344 174.949219 "/>
<g clip-path="url(#clip2)" clip-rule="nonzero">
<path style=" stroke:none;fill-rule:nonzero;fill:rgb(100%,100%,100%);fill-opacity:1;" d="M 162.582031 275.316406 L 100.753906 87.8125 L 85.511719 87.8125 L 85.511719 74.582031 L 152.804688 74.582031 L 152.804688 87.8125 L 126.921875 87.8125 L 156.542969 176.964844 L 179.265625 250.585938 L 180.414062 250.585938 L 203.707031 176.675781 L 231.890625 87.8125 L 206.007812 87.8125 L 206.007812 74.582031 L 264.390625 74.582031 L 264.390625 87.8125 L 249.148438 87.8125 L 187.316406 275.316406 Z M 162.582031 275.316406 "/>
</g>
</g>
</svg>
